# xmcd CD database file
#
# Track frame offsets:
#	183
#	8808
#	23508
#	37158
#	47958
#	53283
#	62358
#	80133
#	91908
#	102858
#	114483
#	127983
#	139983
#	154608
#	166083
#	176358
#	179883
#	189633
#	201708
#	212508
#	241533
#	254358
#	257658
#	267558
#	278283
#	288408
#	300258
#	313233
#	320883
#
# Disc length: 4457 seconds
#
# Revision: 0
# Processed by: cddbd v1.5.1PL0 Copyright (c) Steve Scherf et al.
# Submitted via: CDex 1.51
#
DISCID=9611671d
DTITLE=Sonoton Authentic Series - SAS 034 - Authentic China
DYEAR=1989
DGENRE=Contentum
TTITLE0=Prelude
TTITLE1=Song of the chrysanthemum
TTITLE2=Waves (Waves beating the sands)
TTITLE3=Crossing the Wujiang river
TTITLE4=At the palace gate
TTITLE5=Song of the imperial throne
TTITLE6=Joyous songs and dances
TTITLE7=Song of the dragon and phoenix
TTITLE8=Under the candlelight
TTITLE9=Passing Youth
TTITLE10=Songjiang river
TTITLE11=Love memories
TTITLE12=Spring water
TTITLE13=Glorious night prelude
TTITLE14=Wang ji
TTITLE15=Man Jiang Hong
TTITLE16=Parl curtain in the moon
TTITLE17=Azalea
TTITLE18=Peasant families
TTITLE19=Travel notes on ruili
TTITLE20=Chinese past 1
TTITLE21=Chinese past 2
TTITLE22=Crack of dawn
TTITLE23=Moonlight night
TTITLE24=Chinese puzzle
TTITLE25=Lu yao
TTITLE26=Gong yuan chun si
TTITLE27=Sword dance
TTITLE28=Huan sha
EXTD=YEAR: 1989
EXTT0=
EXTT1=
EXTT2=
EXTT3=
EXTT4=
EXTT5=
EXTT6=
EXTT7=
EXTT8=
EXTT9=
EXTT10=
EXTT11=
EXTT12=
EXTT13=
EXTT14=
EXTT15=
EXTT16=
EXTT17=
EXTT18=
EXTT19=
EXTT20=
EXTT21=
EXTT22=
EXTT23=
EXTT24=
EXTT25=
EXTT26=
EXTT27=
EXTT28=
PLAYORDER=
